<svg xmlns="http://www.w3.org/2000/svg" width="48" height="48" viewBox="0 0 48 48">
    <g fill="none" fill-rule="evenodd">
        <g>
            <path d="M0 0H48V48H0z"/>
            <g fill-rule="nonzero">
                <path fill="#FFCDD4" d="M37.88 15.226c-.302-.928-1.166-1.332-1.956-1.548.512-.64.974-1.474.672-2.403-.286-.879-1.114-1.634-2.333-2.127-1.197-.484-2.68-.68-4.29-.565-1.546.11-2.96.578-4.08 1.084.145-1.157.18-2.636-.209-4.2-.388-1.566-1.033-2.917-1.862-3.906C22.976.555 22.002 0 21.077 0 20.101 0 19.45.697 19 1.381 18.55.697 17.9 0 16.923 0c-.925 0-1.9.555-2.744 1.561-.83.989-1.474 2.34-1.863 3.907-.37 1.492-.373 2.954-.238 4.185-1.115-.5-2.518-.961-4.05-1.07-1.61-.114-3.094.08-4.291.565-1.219.493-2.047 1.248-2.333 2.127-.302.93.16 1.763.672 2.403-.79.216-1.654.62-1.955 1.548-.286.88-.06 1.978.636 3.093.684 1.094 1.77 2.124 3.14 2.978 1.302.812 2.689 1.267 3.9 1.52-.83.915-1.686 2.098-2.262 3.521-.607 1.496-.88 2.967-.79 4.255.093 1.311.555 2.333 1.303 2.876.79.574 1.726.393 2.493.103-.04.819.078 1.765.868 2.34.748.542 1.862.667 3.138.35 1.252-.313 2.567-1.027 3.803-2.066 1.205-1.014 2.04-2.263 2.612-3.31.616 1.091 1.489 2.301 2.688 3.31 1.235 1.04 2.55 1.753 3.803 2.065.463.115.904.173 1.315.173.72 0 1.346-.177 1.823-.523.79-.574.907-1.52.868-2.338.767.29 1.703.47 2.493-.104.748-.543 1.21-1.565 1.302-2.876.09-1.287-.182-2.759-.789-4.255-.582-1.436-1.464-2.636-2.29-3.544 1.144-.22 2.561-.645 3.929-1.497 1.37-.854 2.455-1.884 3.139-2.978.696-1.115.922-2.214.636-3.093z" transform="translate(5 6)"/>
                <path fill="#FFA9B5" d="M37.88 15.226c-.302-.928-1.166-1.332-1.956-1.548.512-.64.974-1.474.672-2.403-.286-.879-1.114-1.634-2.333-2.127-1.197-.484-2.68-.68-4.29-.565-1.546.11-2.96.578-4.08 1.084.145-1.157.18-2.636-.209-4.2-.388-1.566-1.033-2.917-1.862-3.906C22.976.555 22.002 0 21.077 0 20.101 0 19.45.697 19 1.381v29.571c.614 1.074 1.475 2.256 2.65 3.244 1.235 1.04 2.55 1.753 3.803 2.065.463.115.904.173 1.315.173.72 0 1.346-.177 1.823-.523.79-.574.907-1.52.868-2.338.767.29 1.703.47 2.493-.104.748-.543 1.21-1.565 1.302-2.876.09-1.287-.182-2.759-.789-4.255-.582-1.436-1.464-2.636-2.29-3.544 1.144-.22 2.561-.645 3.929-1.497 1.37-.854 2.455-1.884 3.139-2.978.696-1.115.922-2.214.636-3.093z" transform="translate(5 6)"/>
                <path fill="#FF81AD" d="M21.516 21.064c.114.038.23.055.344.055.47 0 .906-.299 1.059-.77.19-.584-.13-1.212-.715-1.402l-1.403-.456.867-1.193c.362-.498.251-1.194-.246-1.555-.498-.362-1.194-.251-1.555.246L19 17.183l-.867-1.194c-.361-.497-1.057-.608-1.555-.246-.497.361-.607 1.057-.246 1.555l.867 1.193-1.403.456c-.585.19-.905.818-.715 1.403.153.47.59.77 1.059.77.114 0 .23-.018.344-.056l1.403-.455v1.475c0 .614.498 1.113 1.113 1.113s1.114-.499 1.114-1.113v-1.475l1.402.455z" transform="translate(5 6)"/>
                <g fill="#FF5E95">
                    <path d="M3.204 3.435L1.801 2.98l.867-1.193C3.03 1.29 2.92.593 2.422.231 1.924-.13 1.228-.02.867.477L0 1.671v6.014c.615 0 1.113-.498 1.113-1.113V5.097l1.403.456c.114.037.23.055.344.055.47 0 .906-.3 1.06-.77.189-.585-.131-1.213-.716-1.403zM3.895 7.045c-.361-.498-1.058-.608-1.555-.246-.498.361-.608 1.057-.247 1.555L3.45 10.22c.218.3.557.46.901.46.227 0 .456-.07.654-.213.497-.362.608-1.058.246-1.555L3.895 7.045zM6.695.232L4.501.945c-.585.19-.905.818-.715 1.403.153.47.59.77 1.059.77.113 0 .23-.018.344-.055l2.194-.713c.585-.19.905-.818.715-1.403C7.908.362 7.28.042 6.695.232z" transform="translate(5 6) translate(19 15.512)"/>
                </g>
                <path fill="#FF81AD" d="M19 15.11c.615 0 1.113-.5 1.113-1.114v-2.307c0-.615-.498-1.114-1.113-1.114s-1.113.499-1.113 1.114v2.307c0 .615.498 1.113 1.113 1.113z" transform="translate(5 6)"/>
                <path fill="#FF5E95" d="M20.113 13.996v-2.307c0-.615-.498-1.114-1.113-1.114v4.534c.615 0 1.113-.498 1.113-1.113z" transform="translate(5 6)"/>
                <path fill="#FF81AD" d="M14.156 18.63c.469 0 .905-.3 1.058-.77.19-.585-.13-1.213-.714-1.403l-2.195-.713c-.585-.19-1.213.13-1.403.715-.19.585.13 1.213.715 1.402l2.194.713c.115.038.23.055.345.055zM16.66 22.31c-.497-.361-1.193-.25-1.555.246l-1.356 1.867c-.361.498-.251 1.194.246 1.555.198.144.427.213.654.213.344 0 .684-.16.901-.459l1.357-1.867c.361-.497.25-1.193-.247-1.555z" transform="translate(5 6)"/>
            </g>
        </g>
    </g>
</svg>
